<svg width="120" height="28" viewBox="0 0 120 28" fill="none" xmlns="http://www.w3.org/2000/svg">
<path d="M43.5829 4.04723H46.4828L50.7651 18.0407L55.2835 4.04723H57.8461L62.1285 18.0407L66.6131 4.04723H69.4118L63.6795 21.244H60.6448L56.4974 8.46444L52.1813 21.244L49.1466 21.2777L43.5829 4.04723Z" fill="white"/>
<path d="M87.4036 4.04723V21.244H85.0095L84.6386 18.479C83.2 20.4572 81.233 21.4463 78.7378 21.4463C77.1417 21.4463 75.7143 21.0979 74.4555 20.401C73.2191 19.7042 72.2412 18.6926 71.5219 17.3663C70.825 16.04 70.4766 14.4664 70.4766 12.6456C70.4766 10.9147 70.825 9.3861 71.5219 8.05981C72.2412 6.73352 73.2303 5.69947 74.4892 4.95765C75.748 4.21583 77.1642 3.84492 78.7378 3.84492C80.109 3.84492 81.2892 4.10343 82.2783 4.62046C83.2674 5.13748 84.0542 5.84559 84.6386 6.74476L85.0095 4.04723H87.4036ZM79.0075 18.9848C80.109 18.9848 81.0869 18.7263 81.9411 18.2093C82.8178 17.6698 83.4922 16.9279 83.9643 15.9838C84.4363 15.0172 84.6724 13.9269 84.6724 12.7131C84.6724 11.4767 84.4363 10.3752 83.9643 9.40858C83.4922 8.41948 82.8178 7.65518 81.9411 7.11567C81.0869 6.57617 80.109 6.30641 79.0075 6.30641C77.2991 6.30641 75.9166 6.90212 74.8601 8.09353C73.826 9.26246 73.309 10.7798 73.309 12.6456C73.309 14.5114 73.826 16.04 74.8601 17.2314C75.9166 18.4003 77.2991 18.9848 79.0075 18.9848Z" fill="white"/>
<path d="M99.9034 4.04723V6.74476H98.5209C96.8799 6.74476 95.6997 7.29551 94.9804 8.397C94.2835 9.49849 93.9351 10.8585 93.9351 12.477V21.244H91.1701V4.04723H93.5642L93.9351 6.64361C94.4297 5.85683 95.0703 5.2274 95.8571 4.75533C96.6439 4.28326 97.7341 4.04723 99.1279 4.04723H99.9034Z" fill="white"/>
<path d="M111.098 3.84492C112.694 3.84492 114.11 4.19335 115.346 4.89021C116.605 5.58707 117.583 6.59865 118.28 7.92493C118.999 9.25122 119.359 10.8248 119.359 12.6456C119.359 14.3765 118.999 15.9051 118.28 17.2314C117.583 18.5577 116.605 19.5918 115.346 20.3336C114.087 21.0754 112.671 21.4463 111.098 21.4463C109.704 21.4463 108.513 21.199 107.523 20.7045C106.534 20.1875 105.759 19.4906 105.197 18.6139V27.9878H102.432V4.04723H104.826L105.197 6.8122C106.635 4.83401 108.602 3.84492 111.098 3.84492ZM110.828 18.9848C112.536 18.9848 113.908 18.4003 114.942 17.2314C115.998 16.04 116.526 14.5114 116.526 12.6456C116.526 10.7798 115.998 9.26246 114.942 8.09353C113.908 6.90212 112.536 6.30641 110.828 6.30641C109.726 6.30641 108.737 6.57617 107.861 7.11567C107.006 7.6327 106.343 8.37452 105.871 9.34114C105.399 10.2853 105.163 11.3643 105.163 12.5782C105.163 13.8145 105.399 14.9273 105.871 15.9164C106.343 16.883 107.006 17.6361 107.861 18.1756C108.737 18.7151 109.726 18.9848 110.828 18.9848Z" fill="white"/>
<path d="M17.6938 27.4378H4.01061C1.79561 27.4378 0 25.6421 0 23.4271V7.85628C0 5.64126 1.79561 3.84562 4.01061 3.84562H23.5918L17.6938 27.4378Z" fill="#006DA8"/>
<path d="M17.7978 0H31.481C33.696 0 35.4916 1.79564 35.4916 4.01067V19.5815C35.4916 21.7965 33.696 23.5921 31.481 23.5921H11.8998L17.7978 0Z" fill="url(#paint0_linear_12_858)"/>
<defs>
<linearGradient id="paint0_linear_12_858" x1="19.9529" y1="19.3102" x2="39.3378" y2="3.52109" gradientUnits="userSpaceOnUse">
<stop stop-color="#01A4FF"/>
<stop offset="0.791667" stop-color="#01FFC2"/>
</linearGradient>
</defs>
</svg>
